<?xml version="1.0" encoding="iso-8859-1"?>
<!-- Uploaded to: SVG Repo, www.svgrepo.com, Generator: SVG Repo Mixer Tools -->
<svg height="800px" width="800px" version="1.1" id="Layer_1" xmlns="http://www.w3.org/2000/svg" xmlns:xlink="http://www.w3.org/1999/xlink" 
	 viewBox="0 0 512 512" xml:space="preserve">
<path style="fill:#825645;" d="M503.629,170.478L340.221,8.286c-46.835-2.288-94.424,14.453-130.195,50.224
	c-45.894,45.894-54.454,107.136-49.123,156.659c0.015,0,135.92,135.904,135.92,135.904c49.523,5.346,110.765-3.213,156.659-49.107
	C489.585,265.864,506.303,217.728,503.629,170.478z"/>
<path style="fill:#FCD197;" d="M503.629,170.478c-41.95,0.439-84.046-15.339-116.049-47.343
	c-31.703-31.703-47.482-73.291-47.359-114.848c41.195,2.011,81.812,18.745,113.277,50.209
	C484.63,89.628,501.341,129.73,503.629,170.478z"/>
<g>
	<path style="fill:#683520;" d="M296.823,351.075c-35.902-3.853-65.633-15.031-78.908-24.592c-17.905-0.678-27.134-5.27-27.134-5.27
		s-4.584-9.222-5.27-27.134c-9.561-13.274-20.74-43.006-24.608-78.908c0.015,0,28.729,16.141,28.729,16.141l28.714-16.141
		l16.818,28.313l32.928,0.416l0.416,32.929l28.313,16.818l-16.141,28.714L296.823,351.075z"/>
	<path style="fill:#683520;" d="M294.951,176.022l-230.234,0.861C29.982,208.382,8.169,253.871,8.169,304.459
		c0,64.905,37.252,114.262,76.04,145.51c0.011-0.011,192.208-0.011,192.208-0.011c38.799-31.238,76.051-80.594,76.051-145.499
		C352.469,253.403,330.253,207.543,294.951,176.022z"/>
</g>
<path style="fill:#FAB352;" d="M294.951,176.022c-29.353,29.974-70.276,48.583-115.536,48.583
	c-44.835,0-85.399-18.25-114.697-47.722c30.551-27.707,71.104-44.595,115.602-44.595
	C224.348,132.288,264.52,148.827,294.951,176.022z"/>
<path style="fill:#825645;" d="M276.418,449.958c-28.111,22.663-57.038,35.781-73.185,38.407
	c-13.14,12.181-22.913,15.461-22.913,15.461s-9.762-3.28-22.913-15.461c-16.147-2.626-45.075-15.744-73.196-38.396
	c0.011-0.011,31.728-8.902,31.728-8.902l8.891-31.717l31.913,8.128l23.578-22.99l23.578,22.99l31.913-8.128l8.891,31.717
	L276.418,449.958z"/>
<g>
	<circle style="fill:#440852;" cx="301" cy="313.225" r="8.172"/>
	<circle style="fill:#440852;" cx="273.761" cy="335.016" r="8.172"/>
	<circle style="fill:#440852;" cx="67.574" cy="275.09" r="8.172"/>
	<circle style="fill:#440852;" cx="417.898" cy="232.772" r="8.172"/>
	<circle style="fill:#440852;" cx="373.782" cy="188.732" r="8.172"/>
	<path style="fill:#440852;" d="M511.779,171.243c0.026-0.279,0.038-0.561,0.035-0.848c-0.005-0.563-0.07-1.112-0.183-1.643
		c-2.67-42.281-20.113-83.794-52.352-116.034C426.693,20.133,384.635,2.664,341.887,0.285c-0.527-0.109-1.073-0.168-1.633-0.169
		c-0.313,0-0.596,0.015-0.876,0.045c-48.681-2.035-98.036,15.483-135.124,52.571c-12.685,12.685-23.287,27.193-31.512,43.126
		c-1.309,2.532-1.202,5.564,0.282,8c1.484,2.435,4.128,3.921,6.979,3.921l0.32-0.004c3.903,0,7.166-2.736,7.978-6.394
		c7.299-13.658,16.545-26.126,27.51-37.092c32.086-32.086,74.268-48.069,116.413-47.956c1.84,42.546,19.268,82.262,49.583,112.579
		c30.654,30.651,70.82,48.09,113.843,49.627c0.433,42.555-15.54,85.249-47.94,117.649c-19.014,19.014-42.186,32.611-68.875,40.412
		c-4.332,1.267-6.817,5.805-5.551,10.137c1.043,3.566,4.303,5.88,7.84,5.88c0.758,0,1.53-0.107,2.296-0.33
		c29.352-8.58,54.87-23.566,75.846-44.542C496.704,270.306,514.205,220.368,511.779,171.243z M393.362,117.353
		c-27.021-27.02-42.707-62.306-44.731-100.156c36.207,3.709,71.407,19.395,99.09,47.077c27.372,27.372,43.013,62.095,46.946,97.874
		C456.383,160.392,420.687,144.678,393.362,117.353z"/>
	<path style="fill:#440852;" d="M301.255,170.801c-0.179-0.216-0.37-0.425-0.575-0.625c-0.403-0.394-0.837-0.739-1.292-1.033
		c-31.786-28.008-73.473-45.028-119.066-45.028c-46.083,0-88.177,17.386-120.087,45.933c-0.449,0.295-0.876,0.64-1.272,1.033
		c-0.209,0.208-0.403,0.425-0.585,0.648C22.515,204.715,0,252.003,0,304.456c0,67.095,38.252,118.709,78.72,151.535
		c0.276,0.251,0.563,0.488,0.868,0.698c27.561,22.156,56.029,35.604,74.047,39.287c13.141,11.703,22.962,15.221,24.082,15.596
		c0.843,0.284,1.723,0.426,2.602,0.426c0.879,0,1.757-0.142,2.602-0.426c1.12-0.376,10.94-3.893,24.082-15.596
		c18.044-3.688,46.568-17.168,74.165-39.38c0.15-0.108,0.29-0.227,0.431-0.344c40.588-32.814,79.042-84.525,79.042-151.797
		C360.642,251.51,337.707,203.822,301.255,170.801z M201.922,480.297c-1.587,0.258-3.065,0.979-4.244,2.072
		c-7.642,7.083-13.97,10.817-17.357,12.526c-3.386-1.707-9.714-5.441-17.357-12.526c-1.18-1.093-2.656-1.814-4.244-2.072
		c-13.136-2.134-34.542-11.756-56.318-26.946l15.742-4.414c2.747-0.77,4.892-2.917,5.662-5.662l6.738-24.037l24.179,6.159
		c2.761,0.705,5.683-0.08,7.722-2.067l17.874-17.424l17.875,17.424c2.039,1.987,4.963,2.772,7.722,2.067l24.179-6.159l6.738,24.038
		c0.77,2.747,2.916,4.892,5.662,5.662l15.742,4.414C236.464,468.54,215.057,478.162,201.922,480.297z M286.601,430.157
		c-3.932,3.774-7.98,7.37-12.084,10.784l-23.185-6.5l-7.651-27.297c-1.197-4.272-5.584-6.808-9.886-5.713l-27.472,6.998
		l-20.297-19.786c-3.174-3.094-8.235-3.094-11.409,0L154.32,408.43l-27.471-6.998c-4.298-1.095-8.688,1.439-9.886,5.713
		l-7.652,27.296l-23.186,6.5c-4.104-3.415-8.152-7.009-12.083-10.783c-26.323-25.265-57.7-67.581-57.7-125.701
		c0-45.377,18.527-86.505,48.408-116.226c13.124,12.024,27.942,21.849,44.153,29.256c1.1,0.503,2.254,0.742,3.391,0.742
		c3.1,0,6.064-1.774,7.437-4.778c1.875-4.105,0.069-8.954-4.037-10.828c-14.169-6.474-27.157-14.999-38.728-25.384
		c28.225-22.979,64.206-36.777,103.354-36.777c38.708,0,74.32,13.492,102.4,36.008c-28.314,25.831-64.66,39.962-103.304,39.962
		c-11.577,0-23.13-1.298-34.336-3.858c-4.405-1.009-8.782,1.747-9.786,6.147c-1.005,4.4,1.747,8.782,6.146,9.785
		c12.399,2.833,25.176,4.269,37.976,4.269c43.349,0,84.086-16.065,115.596-45.402c30.393,29.785,49.286,71.267,49.286,117.085
		C344.299,362.576,312.922,404.892,286.601,430.157z"/>
</g>
</svg>